<svg xmlns="http://www.w3.org/2000/svg" width="75" height="75" viewBox="0 0 75 75"><g transform="translate(1811 667)"><g transform="translate(0 -82)"><rect width="75" height="75" transform="translate(-1811 -585)" fill="#fff"/><g transform="translate(-1811 -585)" fill="#fff" stroke="#000" stroke-width="5"><circle cx="37.5" cy="37.5" r="37.5" stroke="none"/><circle cx="37.5" cy="37.5" r="35" fill="none"/></g><rect width="28" height="25" transform="translate(-1811 -572)" fill="#fff"/></g><rect width="7" height="22" transform="translate(-1805 -662)" fill="#fff"/><line y1="11" transform="translate(-1799.5 -661.5)" fill="none" stroke="#000" stroke-width="4"/><path d="M11,0H0" transform="translate(-1800.5 -652.5)" fill="none" stroke="#000" stroke-width="4"/><path d="M43.2,3h-12l-1-2a2.079,2.079,0,0,0-2-1h-11c-.913,0-2.6.282-3,1l-1,2H1.2c-.888,0-1,.223-1,1V7c0,.777.112,1,1,1h42c.888,0,2-.223,2-1V4C45.2,3.223,44.088,3,43.2,3ZM5.2,41c.159,2.223,2.454,4,5,4h25c2.545,0,3.841-1.777,4-4l3-30H3.2Z" transform="translate(-1796.2 -648)"/></g></svg>