<svg xmlns="http://www.w3.org/2000/svg" width="75" height="75" viewBox="0 0 75 75"><path d="M57.853,32.68c-9.328,0-17,9.34-17,21s7.672,21,17,21,17-9.34,17-21S67.181,32.68,57.853,32.68Zm8,22c0,.776-.379,2-1,2h-7c-.621,0-2-1.224-2-2v-11c0-.776,1.379-1,2-1h1c.621,0,1,.224,1,1v8h5c.621,0,1,.224,1,1Zm-28-1a29.161,29.161,0,0,1,2-11,13.693,13.693,0,0,0-3,0h-2a18.509,18.509,0,0,1-9,2,14.871,14.871,0,0,1-8-2h-2c-8.7,0-16,8.131-16,19v6c0,3.882,2.895,7,6,7h40C40.544,70.007,37.853,62.4,37.853,53.68Zm-12-16c8.285,0,15-8.644,15-19s-6.715-19-15-19-15,8.644-15,19S17.567,37.68,25.853,37.68Z" transform="translate(0.147 0.32)"/></svg>