<svg xmlns="http://www.w3.org/2000/svg" width="48" height="32" viewBox="0 0 48 32"><g transform="translate(-140 515)"><g transform="translate(1 9)"><g transform="translate(139 -524)" fill="rgba(255,255,255,0)" stroke="#24CD98" stroke-width="3"><circle cx="16" cy="16" r="16" stroke="none"/><circle cx="16" cy="16" r="14.5" fill="none"/></g><g transform="translate(155 -524)" fill="rgba(255,255,255,0)" stroke="#24CD98" stroke-width="3"><circle cx="16" cy="16" r="16" stroke="none"/><circle cx="16" cy="16" r="14.5" fill="none"/></g></g><path d="M47.741,28.943l6.807-6.207-6.807,6.207Zm-1.577-2.21,9.484-8.647-9.484,8.647Zm-1.339-2.426L55,15.03,44.825,24.307Zm-1.019-2.718L54.268,12.05,43.806,21.589Zm-.475-3.214,9.441-8.608-9.441,8.608Zm.538-4.138,7.5-6.839-7.5,6.839Z" transform="translate(114.826 -516.239)" fill="none" stroke="#24CD98" stroke-width="2"/></g></svg>