<svg xmlns="http://www.w3.org/2000/svg" width="2134" height="770" viewBox="0 0 2134 770"><g transform="translate(384 -3146)"><path d="M0-2,1366,0V768H0Z" transform="translate(0 3148)" fill="#21998b"/><path d="M1407.5,357.771C1343.716,481.431,1214.729,566,1066,566S788.284,481.431,724.5,357.771C660.716,481.431,531.729,566,383,566,170.923,566-1,394.078-1,182S170.923-202,383-202c148.728,0,277.716,84.569,341.5,208.229C788.284-117.431,917.271-202,1066-202s277.717,84.569,341.5,208.229C1471.284-117.431,1600.271-202,1749-202c212.078,0,384,171.923,384,384s-171.922,384-384,384C1600.271,566,1471.284,481.431,1407.5,357.771Z" transform="translate(-383 3350)" fill="#fff"/><rect width="1306" height="575" transform="translate(30 3218)" fill="#fff"/></g></svg>